# xmcd CD database file
#
# Track frame offsets:
#	150
#	16949
#	30132
#	47098
#	61062
#	79530
#	99903
#	114738
#	132073
#	147021
#
# Disc length: 2140 seconds
#
# Revision: 2
# Processed by: cddbd v1.5.2PL0 Copyright (c) Steve Scherf et al.
# Submitted via: CDex 1.51
#
DISCID=6b085a0a
DTITLE=Paul Butterfield - Put It In Your Ear
DYEAR=1975
DGENRE=Blues Rock
TTITLE0=You Can Run But You Can't Hide 
TTITLE1=(If I Never Sing) My Song 
TTITLE2=The Animal 
TTITLE3=The Breadline
TTITLE4=Ain't That A Lot Of Love 
TTITLE5=I Don't Wanna Go 
TTITLE6=Day to Day 
TTITLE7=Here I Go Again 
TTITLE8=The Flame 
TTITLE9=Watch 'Em Tell a Lie 
EXTD=YEAR: 1975
EXTT0=
EXTT1=
EXTT2=
EXTT3=
EXTT4=
EXTT5=
EXTT6=
EXTT7=
EXTT8=
EXTT9=
PLAYORDER=
